<svg xmlns="http://www.w3.org/2000/svg" width="148" height="98.476" viewBox="0 0 148 98.476"><defs><style>.a,.b{fill:#0540ff;}.a,.d,.f{opacity:0.1;}.c{fill:#3f3d56;}.e{fill:#fabdbd;}.g{fill:#f86d70;}</style></defs><g transform="translate(-0.013 0.004)"><path class="a" d="M183.571,133.585c-8.707-.309-17-3.12-24.913-6.188s-15.762-6.483-24.26-8.112c-5.466-1.048-11.718-1.2-16.121,1.734-4.239,2.825-5.609,7.689-6.345,12.206-.554,3.4-.88,6.974.638,10.156,1.055,2.209,2.925,4.066,4.219,6.182,4.5,7.362,1.32,16.44-3.558,23.628-2.287,3.373-4.944,6.592-6.71,10.179s-2.583,7.7-1.037,11.364c1.531,3.632,5.181,6.355,9.135,8.272,8.03,3.893,17.489,5.009,26.719,5.64,20.426,1.4,40.96.792,61.44.187a180.394,180.394,0,0,0,22.647-1.624c4.141-.651,8.415-1.684,11.422-4.177a9.565,9.565,0,0,0,2.2-12.5c-4.289-6.658-16.144-8.311-19.145-15.458-1.649-3.932.044-8.314,2.443-11.961,5.145-7.824,13.767-14.69,14.22-23.635.312-6.143-3.833-12.295-10.242-15.2-6.717-3.047-16.034-2.664-20.987,2.38C200.229,131.847,191.259,133.845,183.571,133.585Z" transform="translate(-97.292 -113.948)"/><ellipse class="b" cx="9.849" cy="1.894" rx="9.849" ry="1.894" transform="translate(13.202 94.683)"/><ellipse class="c" cx="1.146" cy="1.501" rx="1.146" ry="1.501" transform="translate(21.739 94.272)"/><ellipse class="c" cx="1.146" cy="1.501" rx="1.146" ry="1.501" transform="translate(21.739 92.437)"/><ellipse class="c" cx="1.146" cy="1.501" rx="1.146" ry="1.501" transform="translate(21.739 90.602)"/><ellipse class="c" cx="1.146" cy="1.501" rx="1.146" ry="1.501" transform="translate(21.739 88.768)"/><ellipse class="c" cx="1.146" cy="1.501" rx="1.146" ry="1.501" transform="translate(21.739 86.933)"/><ellipse class="c" cx="1.146" cy="1.501" rx="1.146" ry="1.501" transform="translate(21.739 85.098)"/><ellipse class="c" cx="1.146" cy="1.501" rx="1.146" ry="1.501" transform="translate(21.739 83.263)"/><path class="b" d="M188.8,563.641a5.445,5.445,0,0,0,.428-.628l-3.014-.5,3.258.024a5.5,5.5,0,0,0,.1-4.352l-4.371,2.268,4.036-2.96a5.493,5.493,0,1,0-9.073,6.147,5.541,5.541,0,0,0-.627,1l3.912,2.031-4.171-1.4a5.49,5.49,0,0,0,.885,5.158,5.493,5.493,0,1,0,8.634,0,5.493,5.493,0,0,0,0-6.792Z" transform="translate(-161.617 -491.433)"/><path class="d" d="M179,645.482a5.47,5.47,0,0,0,1.176,3.4,5.493,5.493,0,1,0,8.634,0C189.541,647.945,179,644.867,179,645.482Z" transform="translate(-161.626 -569.879)"/><path class="c" d="M575.788,605.007a3.812,3.812,0,0,0,1.37,2.825,2.194,2.194,0,0,0,2.925-.23,3.273,3.273,0,0,0,.486-1.056,8.756,8.756,0,0,0,.344-5.469c-1.387-.09-2.995-.743-4.036.4A4.781,4.781,0,0,0,575.788,605.007Z" transform="translate(-505.02 -531.288)"/><path class="e" d="M577.935,519.122a34.344,34.344,0,0,0-.465,4.7c.012.608.077,1.211.078,1.822a8.979,8.979,0,0,1-1.211,4.516,1.516,1.516,0,0,1-.331.428,1.063,1.063,0,0,1-1.157.039,2.276,2.276,0,0,1-.822-.892c-1-1.717-1.031-3.8-1.427-5.75-.3-1.489-.837-2.933-1.029-4.44-.125-.97-.106-1.959-.305-2.917-.061-.289-.23-.724-.342-1.15a1.73,1.73,0,0,1-.054-1.012c.214-.526.915-.321,1.371-.289a31.556,31.556,0,0,0,4.824-.012.415.415,0,0,1,.558.289,6.527,6.527,0,0,1,.292,1.076A11.956,11.956,0,0,1,577.935,519.122Z" transform="translate(-500.728 -456.25)"/><g class="f" transform="translate(70.088 57.859)"><path d="M602.689,514.468a1.186,1.186,0,0,0-.249,0c-.769.062-1.54.093-2.31.1Q601.409,514.567,602.689,514.468Z" transform="translate(-596.189 -514.414)"/><path d="M575.138,530.626a2.276,2.276,0,0,1-.822-.892c-1-1.717-1.031-3.8-1.427-5.75-.3-1.489-.837-2.933-1.029-4.44-.125-.97-.106-1.959-.305-2.917-.061-.289-.23-.724-.342-1.15a1.73,1.73,0,0,1-.054-1.012.573.573,0,0,1,.538-.35c-.34-.023-.673.018-.807.35a1.728,1.728,0,0,0,.054,1.012c.112.426.281.861.342,1.15.2.958.18,1.947.305,2.917.192,1.508.725,2.952,1.029,4.44.4,1.947.425,4.036,1.427,5.75a2.276,2.276,0,0,0,.822.892,1.194,1.194,0,0,0,.7.143A1.241,1.241,0,0,1,575.138,530.626Z" transform="translate(-570.833 -514.111)"/></g><path class="e" d="M628.256,510.331a9.071,9.071,0,0,0-.673,3.9c.135,5.381-2.018,16.682-2.018,16.682h-1.883s-.269-12.511,0-13.588-.135-4.843-.538-10.09a26.935,26.935,0,0,1,.955-8.988c.151-.538.256-.833.256-.833s3.094-4.574,4.843-2.422a5.356,5.356,0,0,1,.692,2.786C630.129,501.989,628.875,509.092,628.256,510.331Z" transform="translate(-545.962 -439.209)"/><path class="d" d="M643.287,497.787A5.326,5.326,0,0,0,642.6,495a1.386,1.386,0,0,0-1.321-.561,1.434,1.434,0,0,1,.917.561,5.356,5.356,0,0,1,.692,2.786c.24,4.208-1.014,11.311-1.633,12.551a9.071,9.071,0,0,0-.673,3.9c.135,5.381-2.018,16.682-2.018,16.682h.4s2.153-11.3,2.018-16.682a9.071,9.071,0,0,1,.673-3.9C642.273,509.1,643.527,502,643.287,497.787Z" transform="translate(-559.361 -439.215)"/><path class="c" d="M617.287,752.458a1.747,1.747,0,0,0-.385.42c-.241.455.1,1,.467,1.36s.807.749.807,1.265a1.261,1.261,0,0,1-.665.99c-.188.118-.425.269-.386.492a.464.464,0,0,0,.071.157,2.083,2.083,0,0,0,1.376.834,6.207,6.207,0,0,0,1.649.013.333.333,0,0,0,.226-.078.307.307,0,0,0,.061-.186,2.415,2.415,0,0,1,.135-.844c.175-.351.577-.53.807-.845a1.878,1.878,0,0,0,.156-1.552,6.4,6.4,0,0,0-1.766-3.229C618.8,750.35,617.982,751.8,617.287,752.458Z" transform="translate(-540.547 -661.243)"/><path class="c" d="M385.016,214.971a3.482,3.482,0,0,0-.211-3.807,6.506,6.506,0,0,0-3.27-2.272,9.206,9.206,0,0,0-5.365-.361,26.351,26.351,0,0,0-3.982,1.717,17.125,17.125,0,0,1-7.437,1.48c-2.84-.079-5.952-.807-8.334.745-4.362,2.837-2.422,10.559-6.548,13.722a25.52,25.52,0,0,1-3.751,1.883c-1.238.658-2.411,1.8-2.381,3.2a3.728,3.728,0,0,0,.673,1.883,8.716,8.716,0,0,0,7.336,3.942,9.342,9.342,0,0,0,7.393-3.939,5.776,5.776,0,0,1,1.394-1.649c1.211-.794,2.806-.238,4.251-.12a6.893,6.893,0,0,0,7.075-5.321c.269-1.352.222-2.968,1.31-3.817.878-.685,2.115-.538,3.229-.655a6.6,6.6,0,0,0,4.75-3.137c.507-.76.566-1.668,1.258-2.267C383.15,215.545,384.3,216.031,385.016,214.971Z" transform="translate(-304.2 -191.567)"/><g class="f" transform="translate(46.935 16.711)"><path d="M453.249,232.559a17.054,17.054,0,0,0,3.521-.269c-.32.009-.643.009-.965,0-2.229-.062-4.625-.522-6.705.032C450.472,232.335,451.892,232.521,453.249,232.559Z" transform="translate(-442.324 -228.85)"/><path d="M405.434,380.3a5.775,5.775,0,0,0-1.394,1.649,9.451,9.451,0,0,1-5.31,3.661c.157.007.315.011.474.009a9.338,9.338,0,0,0,7.393-3.939,5.776,5.776,0,0,1,1.394-1.649l.1-.065A3.772,3.772,0,0,0,405.434,380.3Z" transform="translate(-398.73 -356.79)"/><path d="M582.726,211.134a6.532,6.532,0,0,0-3.271-2.272,9.206,9.206,0,0,0-5.365-.361c-.04.009-.079.022-.118.032a10.3,10.3,0,0,1,2.927.6,6.533,6.533,0,0,1,3.27,2.272,3.484,3.484,0,0,1,.211,3.807c-.713,1.064-1.866.578-2.621,1.234-.692.6-.751,1.507-1.258,2.267a6.918,6.918,0,0,1-3.923,2.987c.566-.067,1.164-.059,1.729-.118a6.6,6.6,0,0,0,4.75-3.137c.507-.76.566-1.668,1.258-2.267.755-.655,1.908-.17,2.621-1.234A3.476,3.476,0,0,0,582.726,211.134Z" transform="translate(-549.192 -208.252)"/><path d="M507.207,309.206c-1.107.116-2.344-.03-3.229.655-1.088.849-1.036,2.465-1.31,3.817A6.907,6.907,0,0,1,498,318.716l.16.015a6.893,6.893,0,0,0,7.075-5.321c.269-1.352.222-2.968,1.31-3.817a2.43,2.43,0,0,1,.835-.4C507.32,309.191,507.265,309.2,507.207,309.206Z" transform="translate(-484.645 -295.611)"/></g><path class="e" d="M491.252,158.1s-3.229,6.458-4.305,8.879-10.9,6.054-12.242,6.188a1.733,1.733,0,0,0-.961.463,5.292,5.292,0,0,0-1.192,1.824,41.613,41.613,0,0,1-.135,9.686c-.013.117-.026.234-.036.347-.587,5.761.642,7.119.642,7.119s-13.05,4.978-12.646-1.48a29.264,29.264,0,0,0-.017-4.76,19.986,19.986,0,0,0-.772-3.748c-.319-1.115-.7-2.338-1.094-4a17.56,17.56,0,0,0-.748-2.442c-.009-.024-.019-.048-.027-.071-.673-1.67-1.345-2.209-1.73-2.384a5.817,5.817,0,0,1-1.033-.581,54.342,54.342,0,0,1-6.287-5.284c-3.229-3.229-6.458-10.9-6.458-10.9a12.548,12.548,0,0,1,1.211-8.072c2.153-3.632,1.211,7.13,1.211,7.13s3.9,5.247,4.843,7.668a4.046,4.046,0,0,0,1.883,2.214,22.332,22.332,0,0,1,2.979,1.862,17.4,17.4,0,0,0,2,1.308,17.192,17.192,0,0,0,4.807,1.957,4.533,4.533,0,0,0,.709.061.735.735,0,0,0,.592-.269,3.508,3.508,0,0,0,.3-2.338,11.885,11.885,0,0,0-.221-1.3s4.372-2.758,4.238.605a3.758,3.758,0,0,0,.1,1.106,1.917,1.917,0,0,0,1.3,1.426,3.229,3.229,0,0,0,1.614.052,1.578,1.578,0,0,0,.476-.163,32.56,32.56,0,0,1,5.65-1.614c1.211-.135,7.265-3.094,7.265-3.094l6.592-9.148s-.135-5.381,2.556-7.534S491.252,158.1,491.252,158.1Z" transform="translate(-389.249 -139.51)"/><g class="f" transform="translate(52.754 9.613)"><path d="M666.779,382.591a26.818,26.818,0,0,0-.155,3.256c.013-.71.061-1.522.155-2.449.011-.113.023-.23.036-.347a52.748,52.748,0,0,0,.336-6.241,54.05,54.05,0,0,1-.336,5.434C666.808,382.361,666.79,382.478,666.779,382.591Z" transform="translate(-636.402 -347.035)"/><path d="M594.734,289.07c-.09.052-.135.085-.135.085a11.527,11.527,0,0,1,.258,1.749A8.253,8.253,0,0,0,594.734,289.07Z" transform="translate(-574.069 -271.099)"/><path d="M461.636,174.691c.066-.942.164-2.63.145-4.131-.023,2.007-.2,4.055-.2,4.055Z" transform="translate(-458.944 -168.533)"/><path d="M578.51,466.53a.885.885,0,0,1-.009.157c-.4,6.458,12.646,1.48,12.646,1.48a2.189,2.189,0,0,1-.34-.683C588.841,468.183,578.964,471.436,578.51,466.53Z" transform="translate(-560.128 -424.685)"/><path d="M687.76,163.657s-3.229,6.458-4.3,8.879-10.9,6.054-12.242,6.188a1.732,1.732,0,0,0-.961.463,5.292,5.292,0,0,0-1.192,1.824s.032.219.071.636A5,5,0,0,1,670.252,180a1.733,1.733,0,0,1,.961-.463c1.345-.135,11.166-3.767,12.242-6.188s4.3-8.879,4.3-8.879,2.275-6.908,2.025-8.975A51.275,51.275,0,0,1,687.76,163.657Z" transform="translate(-638.512 -155.49)"/><path d="M460.345,224.493a19.986,19.986,0,0,0-.772-3.748c-.319-1.115-.7-2.338-1.094-4a17.564,17.564,0,0,0-.748-2.442c-.009-.024-.019-.048-.027-.071-.673-1.67-1.345-2.209-1.73-2.384a5.817,5.817,0,0,1-1.033-.581,54.344,54.344,0,0,1-6.287-5.284c-3.229-3.229-6.458-10.9-6.458-10.9a12.165,12.165,0,0,1-.2-1.961,12.97,12.97,0,0,0,.2,2.769s3.229,7.668,6.458,10.9a54.343,54.343,0,0,0,6.287,5.284,5.814,5.814,0,0,0,1.041.581c.383.175,1.055.714,1.73,2.384.008.023.017.047.027.071a17.56,17.56,0,0,1,.744,2.442c.394,1.665.775,2.888,1.094,4a19.988,19.988,0,0,1,.772,3.748c.056.562.09,1.174.1,1.863A23.428,23.428,0,0,0,460.345,224.493Z" transform="translate(-441.989 -188.058)"/></g><path class="b" d="M574.591,322.5a8,8,0,0,0-.538,1.06,6.4,6.4,0,0,0-.242,1.779,14.29,14.29,0,0,1-.382,2.492,2.763,2.763,0,0,1-.135.441,1.166,1.166,0,0,1-.157.269,1.146,1.146,0,0,1-.25.227,2.936,2.936,0,0,1-.456.249,10.72,10.72,0,0,1-5.958,1.345,8.669,8.669,0,0,1-2.479-.834,3.059,3.059,0,0,0-2.344-.487h0a1.181,1.181,0,0,1-.375.117.356.356,0,0,1-.075-.007c-.253-.048-.253-.9-.311-1.153-.221-.966-.254-1.749-.386-2.588a8.487,8.487,0,0,0-.324-1.368,16.157,16.157,0,0,1-.7-5.069c0-.085-.605,0-.807-.008-.051,0-.079-.008-.067-.026a.268.268,0,0,1,.04-.046.615.615,0,0,1,.241-.12l.159-.047a5.432,5.432,0,0,0,2.37-.919,3.169,3.169,0,0,0,.779-2.451,14.592,14.592,0,0,1-.124-1.544,4.534,4.534,0,0,0,.709.061.735.735,0,0,0,.592-.269,10.639,10.639,0,0,1,.581,1.345,9.3,9.3,0,0,0,.739,1.663,2.816,2.816,0,0,0,2.518,1.29,2.339,2.339,0,0,0,2.083-1.816,20.539,20.539,0,0,0-.2-2.972,3.229,3.229,0,0,0,1.614.052,1.472,1.472,0,0,1,.058.168c.3,1.039.706,2.231,1.722,2.6.656.237,1.433.059,2.04.4a1.3,1.3,0,0,1,.135.089,1.49,1.49,0,0,1,.356.378,3.038,3.038,0,0,1,.432,1.356A7.523,7.523,0,0,1,574.591,322.5Z" transform="translate(-490.157 -282.292)"/><path class="d" d="M598.9,284.565a4.585,4.585,0,0,1-4.119-.416,11.883,11.883,0,0,0-.221-1.3s4.372-2.758,4.238.605A3.757,3.757,0,0,0,598.9,284.565Z" transform="translate(-521.28 -255.185)"/><circle class="e" cx="4.574" cy="4.574" r="4.574" transform="translate(71.395 20.269)"/><path class="g" d="M555.06,337.787s8.879-5.65,36.458.4,43.588,1.211,43.588,1.211v6.323s-30.942,3.363-42.781,0-28.692-5.3-34.594-.1Z" transform="translate(-487.094 -301.576)"/><path class="d" d="M555.06,337.787s8.879-5.65,36.458.4,43.588,1.211,43.588,1.211v6.323s-30.942,3.363-42.781,0-28.692-5.3-34.594-.1Z" transform="translate(-487.094 -301.576)"/><path class="g" d="M557.06,339.787s8.61-5.65,36.189.4,43.319,1.211,43.319,1.211l.135,5.785s-30.673,3.363-42.512,0-28.557-5.707-34.459-.5Z" transform="translate(-488.825 -303.307)"/><path class="g" d="M129.624,359.121s-8.879,5.65-36.458-.4-26.234-1.211-26.234-1.211v-6.323s13.588-3.363,25.427,0,28.692,5.3,34.594.1Z" transform="translate(-64.625 -313.95)"/><path class="d" d="M129.624,359.121s-8.879,5.65-36.458-.4-26.234-1.211-26.234-1.211v-6.323s13.588-3.363,25.427,0,28.692,5.3,34.594.1Z" transform="translate(-64.625 -313.95)"/><path class="g" d="M130.288,360.583s-8.61,5.65-36.189-.4-25.965-1.211-25.965-1.211L68,353.184s13.319-3.363,25.158,0,28.557,5.707,34.459.5Z" transform="translate(-65.559 -315.681)"/><path class="c" d="M557.68,226.863c-.135-.839-.342-1.9.361-2.377a1.493,1.493,0,0,1,.833-.215c1.454-.015,2.844,1,4.27.7a2.407,2.407,0,0,0,.942-4.288,4.835,4.835,0,0,0-1.956-.709,12.034,12.034,0,0,0-5.469-.269c-1.781.472-3.409,2.069-3.266,3.9a5.51,5.51,0,0,0,.981,2.422c.355.568,1.738,3.229,2.409,3.269C557.731,229.355,557.773,227.412,557.68,226.863Z" transform="translate(-485.644 -201.262)"/><path class="b" d="M583.393,461.7s-9.283,2.287-12.377,0c0,0-1.345,5.247-.942,7.937,0,0,6.592.4,7.265.807,0,0,.135-1.076.807-.538,0,0,2.287-2.691,6.458-.269C584.6,469.637,585.411,463.314,583.393,461.7Z" transform="translate(-500.023 -410.892)"/><path class="d" d="M581.54,227.2a2.662,2.662,0,0,0-.3-.188,2.4,2.4,0,0,1-1.317,3.938c-1.426.3-2.816-.717-4.27-.7a1.493,1.493,0,0,0-.833.215c-.7.48-.5,1.538-.362,2.377.089.549.052,2.492-.892,2.439h-.016c.26.316.5.53.689.538.942.052.981-1.883.892-2.439-.135-.839-.34-1.9.362-2.377a1.493,1.493,0,0,1,.833-.215c1.454-.015,2.844,1,4.27.7a2.407,2.407,0,0,0,.942-4.288Z" transform="translate(-503.097 -207.775)"/><g class="f" transform="translate(0.013 11.863)"><path class="b" d="M61.569,173.386s-10.059-4.23-11.377,3.4a1.855,1.855,0,0,0,.269,2.17s.206-.526,1.179.019a5.058,5.058,0,0,0,1.1.445,2.47,2.47,0,0,0,1.563-.083h0s3.308-.179,6.09-4.507c0,0,1.192-.737,1.252-1.013l-1.994.135a3.317,3.317,0,0,1-.673,2.335s.733-2.264.381-2.329c-.071-.013-1.053.117-1.053.117s.254,2.537-1.076,3.85c0,0,1.235-2.582.7-3.8l-1.47.284s.4,2.669-1.052,4.223c0,0,1.2-2.744.735-4.14l-1.41.474s.34,2.613-.877,3.9c0,0,1.063-3.311.562-3.767a7.367,7.367,0,0,0-1.539.807s.2,1.883-.573,2.556c0,0,.476-2.287.241-2.381a7.68,7.68,0,0,0-1.921,2.065,5.585,5.585,0,0,1,1.735-2.287,3.1,3.1,0,0,0-1.749.246s.51-.97,2.105-.51a7,7,0,0,1,1.419-.807,6.8,6.8,0,0,0-2.6-.591s1.169-.673,2.97.452l1.4-.509a9.562,9.562,0,0,0-2.927-1s1.3-.5,3.293.9l1.438-.295a11.447,11.447,0,0,0-2.7-1.219,4.533,4.533,0,0,1,3.118,1.152l.985-.083s-1.192-.7-1.553-.872-.344-.283-.344-.283a4.7,4.7,0,0,1,2.31,1.111A11.356,11.356,0,0,0,61.569,173.386Z" transform="translate(-49.953 -172.217)"/></g><g class="f" transform="translate(1.487 -0.004)"><path class="b" d="M70.681,89.461S67.11,81.218,61.986,85a1.526,1.526,0,0,0-1.076,1.439s.422-.2.689.682a4.223,4.223,0,0,0,.4.891,2.018,2.018,0,0,0,.967.838h0s2.066,1.779,6.188.792c0,0,1.129.242,1.322.112L69.22,88.7a2.713,2.713,0,0,1-1.733,1s1.726-.928,1.552-1.168C69,88.48,68.348,88,68.348,88a4.476,4.476,0,0,1-2.825,1.678s2.2-.831,2.582-1.863L67.07,87.14a4.7,4.7,0,0,1-3.031,1.909s2.274-.942,2.794-2.04l-1.107-.522s-1.286,1.749-2.74,1.815c0,0,2.517-1.361,2.478-1.917a5.846,5.846,0,0,0-1.376-.393s-.951,1.231-1.8,1.2c0,0,1.586-1.088,1.5-1.278a6.3,6.3,0,0,0-2.318.135,4.591,4.591,0,0,1,2.334-.369,2.522,2.522,0,0,0-1.176-.848s.856-.287,1.542.9a5.834,5.834,0,0,1,1.3.327,5.5,5.5,0,0,0-1.211-1.832s1.076.269,1.507,1.96l1.123.5a7.723,7.723,0,0,0-1.179-2.257s1.059.441,1.446,2.408l1.021.644a9.379,9.379,0,0,0-.911-2.257,3.725,3.725,0,0,1,1.2,2.459l.632.511s-.309-1.1-.426-1.4-.043-.363-.043-.363a3.876,3.876,0,0,1,.739,1.976A9.522,9.522,0,0,0,70.681,89.461Z" transform="translate(-60.91 -84.006)"/></g></g></svg>